<svg xmlns="http://www.w3.org/2000/svg" width="1280" height="720" viewBox="0 0 1280 720">
  <defs>
    <radialGradient id="bg" cx="50%" cy="42%" r="75%">
      <stop offset="0%" stop-color="#1b2a30"/>
      <stop offset="55%" stop-color="#0f161a"/>
      <stop offset="100%" stop-color="#070a0c"/>
    </radialGradient>
    <radialGradient id="amber" cx="50%" cy="50%" r="50%">
      <stop offset="0%" stop-color="#ffd98a" stop-opacity="0.55"/>
      <stop offset="45%" stop-color="#e0a44a" stop-opacity="0.18"/>
      <stop offset="100%" stop-color="#e0a44a" stop-opacity="0"/>
    </radialGradient>
    <radialGradient id="teal" cx="50%" cy="50%" r="50%">
      <stop offset="0%" stop-color="#7fe6d6" stop-opacity="0.45"/>
      <stop offset="60%" stop-color="#3fae9e" stop-opacity="0.12"/>
      <stop offset="100%" stop-color="#3fae9e" stop-opacity="0"/>
    </radialGradient>
    <radialGradient id="nodeglow" cx="50%" cy="50%" r="50%">
      <stop offset="0%" stop-color="#ffe6a8" stop-opacity="0.7"/>
      <stop offset="100%" stop-color="#ffe6a8" stop-opacity="0"/>
    </radialGradient>
    <linearGradient id="gold" x1="0" y1="0" x2="0" y2="1">
      <stop offset="0%" stop-color="#fbe9a6"/>
      <stop offset="45%" stop-color="#e8c25e"/>
      <stop offset="100%" stop-color="#a9742a"/>
    </linearGradient>
    <linearGradient id="steel" x1="0" y1="0" x2="0" y2="1">
      <stop offset="0%" stop-color="#e3e9ee"/>
      <stop offset="50%" stop-color="#9aa6b0"/>
      <stop offset="100%" stop-color="#5b6671"/>
    </linearGradient>
    <radialGradient id="disc" cx="42%" cy="36%" r="70%">
      <stop offset="0%" stop-color="#2c3a42"/>
      <stop offset="100%" stop-color="#121a1f"/>
    </radialGradient>
    <linearGradient id="gem" x1="0" y1="0" x2="0" y2="1">
      <stop offset="0%" stop-color="#bdfff3"/>
      <stop offset="50%" stop-color="#39c7b3"/>
      <stop offset="100%" stop-color="#0d8f7e"/>
    </linearGradient>
    <radialGradient id="vig" cx="50%" cy="48%" r="62%">
      <stop offset="0%" stop-color="#000000" stop-opacity="0"/>
      <stop offset="78%" stop-color="#000000" stop-opacity="0"/>
      <stop offset="100%" stop-color="#000000" stop-opacity="0.65"/>
    </radialGradient>
  </defs>

  <rect width="1280" height="720" fill="url(#bg)"/>

  <g stroke="#6fd6c8" stroke-opacity="0.06" fill="none" stroke-width="2">
    <polygon points="640,60 1010,275 1010,705 640,920 270,705 270,275" transform="translate(0,-160)"/>
    <polygon points="640,150 870,283 870,549 640,682 410,549 410,283"/>
  </g>

  <g transform="translate(0,-38)">
  <ellipse cx="640" cy="300" rx="430" ry="360" fill="url(#amber)"/>
  <ellipse cx="640" cy="300" rx="300" ry="300" fill="url(#teal)"/>

  <circle cx="640" cy="300" r="180" fill="none" stroke="url(#gold)" stroke-width="3" stroke-opacity="0.85"/>
  <circle cx="640" cy="300" r="180" fill="none" stroke="#ffe6a8" stroke-width="10" stroke-opacity="0.07"/>
  <circle cx="640" cy="300" r="150" fill="none" stroke="#8fe6d8" stroke-width="1" stroke-opacity="0.25" stroke-dasharray="2 10"/>

  <g fill="url(#steel)" stroke="#2a343c" stroke-width="2">
    <g transform="translate(640,120)">
      <circle r="64" fill="url(#nodeglow)" stroke="none"/>
      <circle r="50" fill="url(#disc)" stroke="url(#gold)" stroke-width="2.5"/>
      <path d="M-26,10 Q-26,-30 0,-30 Q26,-30 26,10 L26,16 L-26,16 Z"/>
      <rect x="-22" y="-4" width="44" height="9" rx="2" fill="#1b242b" stroke="none"/>
      <rect x="-3" y="-4" width="6" height="18" rx="2" fill="#1b242b" stroke="none"/>
    </g>
    <g transform="translate(484,210)">
      <circle r="64" fill="url(#nodeglow)" stroke="none"/>
      <circle r="50" fill="url(#disc)" stroke="url(#gold)" stroke-width="2.5"/>
      <path d="M-24,-22 L24,-22 L30,-6 L20,28 L-20,28 L-30,-6 Z"/>
      <line x1="0" y1="-22" x2="0" y2="28" stroke="#1b242b" stroke-width="3"/>
    </g>
    <g transform="translate(796,210)">
      <circle r="64" fill="url(#nodeglow)" stroke="none"/>
      <circle r="50" fill="url(#disc)" stroke="url(#gold)" stroke-width="2.5"/>
      <path d="M-28,20 Q-30,-26 16,-28 Q32,-28 32,-6 Q32,16 8,20 Z"/>
      <path d="M-16,8 Q-8,-14 18,-16" fill="none" stroke="#1b242b" stroke-width="2.5"/>
    </g>
    <g transform="translate(484,390)">
      <circle r="64" fill="url(#nodeglow)" stroke="none"/>
      <circle r="50" fill="url(#disc)" stroke="url(#gold)" stroke-width="2.5"/>
      <rect x="-23" y="-26" width="18" height="52" rx="7"/>
      <rect x="5" y="-26" width="18" height="52" rx="7"/>
    </g>
    <g transform="translate(796,390)">
      <circle r="64" fill="url(#nodeglow)" stroke="none"/>
      <circle r="50" fill="url(#disc)" stroke="url(#gold)" stroke-width="2.5"/>
      <rect x="-16" y="-2" width="32" height="30" rx="9"/>
      <rect x="-14" y="-26" width="7" height="26" rx="3"/>
      <rect x="-4" y="-30" width="8" height="30" rx="4"/>
      <rect x="7" y="-26" width="7" height="26" rx="3"/>
    </g>
    <g transform="translate(640,480)">
      <circle r="64" fill="url(#nodeglow)" stroke="none"/>
      <circle r="50" fill="url(#disc)" stroke="url(#gold)" stroke-width="2.5"/>
      <path d="M-14,-28 L6,-28 L6,12 L28,12 L28,28 L-14,28 Z"/>
    </g>
  </g>

  <g transform="translate(640,300)">
    <circle r="120" fill="url(#amber)"/>
    <g transform="rotate(45)">
      <rect x="-42" y="-42" width="84" height="84" rx="6" fill="url(#gem)" stroke="#eafff9" stroke-opacity="0.5" stroke-width="2"/>
      <path d="M-42,-42 L42,42 M42,-42 L-42,42 M0,-42 L0,42 M-42,0 L42,0" stroke="#0b6e60" stroke-opacity="0.55" stroke-width="2" fill="none"/>
    </g>
    <circle r="7" fill="#f6fffb"/>
  </g>

  </g>
  <g font-family="Georgia, 'Times New Roman', serif" text-anchor="middle">
    <text x="643" y="605" font-size="118" font-weight="bold" fill="#0a0d0f" fill-opacity="0.6" letter-spacing="10">SET BONUS</text>
    <text x="640" y="600" font-size="118" font-weight="bold" fill="url(#gold)" letter-spacing="10">SET BONUS</text>
    <text x="640" y="650" font-size="30" fill="#cfe7e1" letter-spacing="6" font-style="italic">Wear the whole set, reap the reward</text>
    <text x="640" y="694" font-size="22" fill="#e8c25e" letter-spacing="14">II  ·  IV  ·  VI</text>
  </g>

  <rect x="22" y="22" width="1236" height="676" fill="none" stroke="url(#gold)" stroke-width="2" stroke-opacity="0.6" rx="4"/>
  <g stroke="url(#gold)" stroke-width="2.5" fill="none" stroke-opacity="0.8">
    <path d="M40,70 L40,40 L70,40"/><path d="M1240,70 L1240,40 L1210,40"/>
    <path d="M40,650 L40,680 L70,680"/><path d="M1240,650 L1240,680 L1210,680"/>
  </g>

  <g fill="#ffcf7a">
    <circle cx="300" cy="180" r="2.5" opacity="0.7"/><circle cx="980" cy="150" r="2" opacity="0.6"/>
    <circle cx="220" cy="430" r="2" opacity="0.5"/><circle cx="1060" cy="420" r="2.6" opacity="0.7"/>
    <circle cx="400" cy="540" r="1.8" opacity="0.5"/><circle cx="880" cy="560" r="2.2" opacity="0.6"/>
    <circle cx="540" cy="120" r="1.6" opacity="0.5"/><circle cx="760" cy="120" r="1.8" opacity="0.55"/>
    <circle cx="160" cy="300" r="2" opacity="0.45"/><circle cx="1120" cy="300" r="2" opacity="0.5"/>
    <circle cx="350" cy="650" r="2.2" opacity="0.5"/><circle cx="930" cy="650" r="1.8" opacity="0.5"/>
  </g>

  <rect width="1280" height="720" fill="url(#vig)"/>
</svg>
